<svg width="31" height="11" viewBox="0 0 31 11" fill="none" xmlns="http://www.w3.org/2000/svg">
<path d="M30.3485 6.69214C30.2405 6.07958 30.2459 5.25269 29.9913 4.66598C29.8271 4.30626 29.4028 4.18673 29.1169 3.99422C28.6677 3.73332 28.2102 3.42531 27.7611 3.16441C26.0704 2.15072 24.3798 1.13703 22.6892 0.123336C22.8607 0.238841 22.8803 1.2071 22.9135 1.39558C22.9468 1.58406 22.9663 2.55231 23.1379 2.66782C23.9873 3.19822 24.8774 3.67289 25.7268 4.20329C17.389 4.36168 9.00229 4.52869 0.672774 4.7342C0.770527 4.71696 0.966496 7.25741 1.11313 7.23156C8.69288 7.06108 16.3215 6.88199 23.9584 6.75002C23.0058 7.06374 22.021 7.48033 21.1505 7.97391C21.0122 8.04689 21.2345 8.73645 21.3914 9.34039C21.4579 9.71735 21.5244 10.0943 21.5908 10.4713C21.7292 10.3983 21.9164 10.3167 22.0547 10.2437C22.0547 10.2437 22.1036 10.2351 22.0952 10.188C23.5679 9.39389 25.2048 8.95951 26.8416 8.52513C27.7537 8.26714 28.674 8.05627 29.5694 7.70405C30.0905 7.51501 30.3265 7.4248 30.3661 7.07772C30.3745 7.12484 30.4233 7.11622 30.4316 7.16334C30.415 7.0691 30.3984 6.97486 30.3818 6.88062C30.3735 6.8335 30.3569 6.73926 30.3485 6.69214ZM28.0382 5.59339C27.9893 5.602 27.9893 5.602 27.9404 5.61062C27.9321 5.5635 27.9238 5.51638 27.9238 5.51638C27.9238 5.51638 27.981 5.55488 28.0382 5.59339Z" fill="white"/>
</svg>
